<?xml version="1.0" standalone="no"?>
<!DOCTYPE svg PUBLIC "-//W3C//DTD SVG 20010904//EN"
 "http://www.w3.org/TR/2001/REC-SVG-20010904/DTD/svg10.dtd">
<svg version="1.0" xmlns="http://www.w3.org/2000/svg"
 width="128.000000pt" height="128.000000pt" viewBox="0 0 128.000000 128.000000"
 preserveAspectRatio="xMidYMid meet">

<g transform="translate(0.000000,128.000000) scale(0.100000,-0.100000)"
fill="#000000" stroke="none">
<path d="M312 950 c-79 -17 -161 -88 -203 -175 -39 -81 -41 -184 -5 -261 53
-114 153 -183 277 -192 61 -4 73 -1 142 32 133 64 185 156 197 348 0 15 64 80
91 94 61 31 160 11 210 -42 20 -21 31 -24 96 -24 40 0 73 2 73 5 0 19 -32 77
-60 109 -46 51 -106 91 -162 104 -57 15 -175 16 -183 2 -3 -5 -21 -16 -39 -25
-89 -42 -164 -155 -173 -259 -7 -71 -28 -119 -73 -161 -29 -28 -37 -30 -103
-30 -63 0 -76 3 -109 28 -67 51 -86 132 -49 213 26 57 72 87 141 92 61 4 129
-21 149 -55 12 -21 10 -23 51 56 l34 63 -25 19 c-71 55 -183 79 -277 59z"/>
<path d="M920 620 l0 -70 62 0 61 0 -24 -26 c-41 -44 -76 -57 -145 -52 -57 3
-68 8 -100 38 -34 34 -36 34 -50 16 -8 -11 -14 -27 -14 -37 0 -9 -9 -28 -20
-42 -27 -34 -26 -38 16 -66 51 -35 131 -60 191 -61 155 -1 303 149 303 307 l0
63 -140 0 -140 0 0 -70z"/>
</g>
</svg>
