<svg id="svg" version="1.1" xmlns="http://www.w3.org/2000/svg" xmlns:xlink="http://www.w3.org/1999/xlink" width="400" height="400" viewBox="0, 0, 400,400"><g id="svgg"><path id="path0" d="M357.183 188.620 C 356.338 189.638,357.728 190.844,358.666 189.906 C 359.319 189.252,358.882 188.000,358.000 188.000 C 357.834 188.000,357.466 188.279,357.183 188.620 M358.400 189.200 C 358.400 190.044,357.818 190.276,357.400 189.600 C 357.108 189.128,357.487 188.400,358.024 188.400 C 358.231 188.400,358.400 188.760,358.400 189.200 M179.941 194.864 C 180.279 195.315,180.304 195.612,180.019 195.788 C 179.789 195.931,179.600 196.255,179.600 196.509 C 179.600 196.772,179.896 196.675,180.286 196.286 C 180.933 195.638,180.929 195.561,180.208 194.900 C 179.575 194.321,179.530 194.315,179.941 194.864 " stroke="none" fill="#040404" fill-rule="evenodd"></path><path id="path1" d="" stroke="none" fill="#080404" fill-rule="evenodd"></path><path id="path2" d="" stroke="none" fill="#080404" fill-rule="evenodd"></path><path id="path3" d="" stroke="none" fill="#080404" fill-rule="evenodd"></path><path id="path4" d="" stroke="none" fill="#080404" fill-rule="evenodd"></path></g></svg>